<svg width="239" height="50" viewBox="0 0 239 50" fill="none" xmlns="http://www.w3.org/2000/svg">
<path d="M107.832 45L110.072 33.8H115.032C116.152 33.8 117.021 34.008 117.64 34.424C118.259 34.84 118.568 35.4533 118.568 36.264C118.568 36.968 118.392 37.5653 118.04 38.056C117.699 38.536 117.251 38.8987 116.696 39.144C116.141 39.3893 115.555 39.512 114.936 39.512L115.304 39.048C116.136 39.048 116.808 39.256 117.32 39.672C117.832 40.088 118.088 40.696 118.088 41.496C118.088 42.264 117.885 42.9093 117.48 43.432C117.085 43.9547 116.52 44.3493 115.784 44.616C115.059 44.872 114.205 45 113.224 45H107.832ZM109.688 43.704H113.336C114.339 43.704 115.117 43.5173 115.672 43.144C116.227 42.7707 116.504 42.2267 116.504 41.512C116.504 40.9467 116.301 40.552 115.896 40.328C115.491 40.0933 114.915 39.976 114.168 39.976H110.168L110.424 38.68H113.96C114.547 38.68 115.059 38.6 115.496 38.44C115.944 38.28 116.291 38.04 116.536 37.72C116.781 37.4 116.904 37 116.904 36.52C116.904 36.0293 116.712 35.672 116.328 35.448C115.944 35.2133 115.4 35.096 114.696 35.096H111.4L109.688 43.704ZM123.333 45.096C122.608 45.096 121.995 44.9467 121.493 44.648C121.003 44.3493 120.656 43.9173 120.453 43.352C120.251 42.776 120.229 42.0827 120.389 41.272L121.333 36.52H122.869L121.925 41.288C121.776 42.0453 121.851 42.6427 122.149 43.08C122.459 43.5067 123.003 43.72 123.781 43.72C124.581 43.72 125.253 43.496 125.797 43.048C126.341 42.6 126.704 41.9227 126.885 41.016L127.781 36.52H129.317L127.637 45H126.165L126.645 42.568L126.917 43.224C126.523 43.864 126.011 44.3387 125.381 44.648C124.763 44.9467 124.08 45.096 123.333 45.096ZM133.234 45.096C132.519 45.096 131.842 45.0053 131.202 44.824C130.572 44.632 130.087 44.3973 129.745 44.12L130.434 42.904C130.764 43.16 131.191 43.368 131.714 43.528C132.247 43.688 132.802 43.768 133.378 43.768C134.114 43.768 134.668 43.656 135.042 43.432C135.415 43.208 135.602 42.904 135.602 42.52C135.602 42.2427 135.49 42.0347 135.266 41.896C135.042 41.7467 134.748 41.6347 134.386 41.56C134.034 41.4747 133.655 41.3947 133.25 41.32C132.844 41.2347 132.466 41.1173 132.114 40.968C131.762 40.8187 131.468 40.6053 131.234 40.328C131.01 40.04 130.898 39.6613 130.898 39.192C130.898 38.6267 131.058 38.1413 131.378 37.736C131.698 37.32 132.146 37 132.722 36.776C133.298 36.552 133.97 36.44 134.738 36.44C135.292 36.44 135.836 36.5093 136.37 36.648C136.914 36.776 137.356 36.9627 137.698 37.208L137.09 38.424C136.738 38.1787 136.343 38.008 135.906 37.912C135.468 37.8053 135.031 37.752 134.594 37.752C133.879 37.752 133.34 37.8747 132.978 38.12C132.615 38.3547 132.434 38.6533 132.434 39.016C132.434 39.2933 132.546 39.512 132.77 39.672C132.994 39.8213 133.282 39.9387 133.634 40.024C133.996 40.1093 134.375 40.1947 134.77 40.28C135.175 40.3547 135.554 40.4667 135.906 40.616C136.268 40.7547 136.562 40.9627 136.786 41.24C137.01 41.5067 137.122 41.8747 137.122 42.344C137.122 42.9307 136.956 43.432 136.626 43.848C136.306 44.2533 135.852 44.5627 135.266 44.776C134.679 44.9893 134.002 45.096 133.234 45.096ZM138.577 45L140.257 36.52H141.793L140.113 45H138.577ZM141.473 34.888C141.185 34.888 140.95 34.7973 140.769 34.616C140.598 34.4347 140.513 34.216 140.513 33.96C140.513 33.6613 140.614 33.4107 140.817 33.208C141.02 32.9947 141.286 32.888 141.617 32.888C141.894 32.888 142.124 32.9787 142.305 33.16C142.497 33.3307 142.593 33.5387 142.593 33.784C142.593 34.1147 142.492 34.3813 142.289 34.584C142.086 34.7867 141.814 34.888 141.473 34.888ZM149.062 36.44C149.809 36.44 150.433 36.5893 150.934 36.888C151.435 37.1867 151.782 37.624 151.974 38.2C152.177 38.7653 152.198 39.448 152.038 40.248L151.094 45H149.558L150.502 40.248C150.662 39.48 150.587 38.8827 150.278 38.456C149.969 38.0293 149.414 37.816 148.614 37.816C147.793 37.816 147.11 38.04 146.566 38.488C146.022 38.9253 145.659 39.6027 145.478 40.52L144.582 45H143.046L144.726 36.52H146.198L145.718 38.952L145.43 38.296C145.835 37.656 146.347 37.1867 146.966 36.888C147.595 36.5893 148.294 36.44 149.062 36.44ZM157.985 45.096C157.153 45.096 156.433 44.9467 155.825 44.648C155.217 44.3387 154.747 43.912 154.417 43.368C154.086 42.8133 153.921 42.1627 153.921 41.416C153.921 40.456 154.129 39.6027 154.545 38.856C154.961 38.1093 155.526 37.5227 156.241 37.096C156.966 36.6587 157.787 36.44 158.705 36.44C159.473 36.44 160.139 36.5893 160.705 36.888C161.27 37.176 161.707 37.592 162.017 38.136C162.337 38.68 162.497 39.336 162.497 40.104C162.497 40.296 162.486 40.4933 162.465 40.696C162.443 40.888 162.417 41.0693 162.385 41.24H155.041L155.233 40.12H161.649L161.025 40.504C161.121 39.9067 161.078 39.4053 160.897 39C160.715 38.584 160.427 38.2693 160.033 38.056C159.649 37.832 159.185 37.72 158.641 37.72C158.001 37.72 157.435 37.8747 156.945 38.184C156.465 38.4827 156.091 38.904 155.825 39.448C155.558 39.9813 155.424 40.6107 155.424 41.336C155.424 42.104 155.643 42.7013 156.081 43.128C156.529 43.544 157.206 43.752 158.113 43.752C158.646 43.752 159.142 43.6667 159.601 43.496C160.059 43.3147 160.438 43.0747 160.737 42.776L161.392 43.88C160.987 44.2747 160.481 44.5787 159.873 44.792C159.265 44.9947 158.635 45.096 157.985 45.096ZM166.39 45.096C165.675 45.096 164.998 45.0053 164.358 44.824C163.728 44.632 163.243 44.3973 162.902 44.12L163.59 42.904C163.92 43.16 164.347 43.368 164.87 43.528C165.403 43.688 165.958 43.768 166.534 43.768C167.27 43.768 167.824 43.656 168.198 43.432C168.571 43.208 168.758 42.904 168.758 42.52C168.758 42.2427 168.646 42.0347 168.422 41.896C168.198 41.7467 167.904 41.6347 167.542 41.56C167.19 41.4747 166.811 41.3947 166.406 41.32C166 41.2347 165.622 41.1173 165.27 40.968C164.918 40.8187 164.624 40.6053 164.39 40.328C164.166 40.04 164.054 39.6613 164.054 39.192C164.054 38.6267 164.214 38.1413 164.534 37.736C164.854 37.32 165.302 37 165.878 36.776C166.454 36.552 167.126 36.44 167.894 36.44C168.448 36.44 168.992 36.5093 169.526 36.648C170.07 36.776 170.512 36.9627 170.854 37.208L170.246 38.424C169.894 38.1787 169.499 38.008 169.062 37.912C168.624 37.8053 168.187 37.752 167.75 37.752C167.035 37.752 166.496 37.8747 166.134 38.12C165.771 38.3547 165.59 38.6533 165.59 39.016C165.59 39.2933 165.702 39.512 165.926 39.672C166.15 39.8213 166.438 39.9387 166.79 40.024C167.152 40.1093 167.531 40.1947 167.926 40.28C168.331 40.3547 168.71 40.4667 169.062 40.616C169.424 40.7547 169.718 40.9627 169.942 41.24C170.166 41.5067 170.278 41.8747 170.278 42.344C170.278 42.9307 170.112 43.432 169.782 43.848C169.462 44.2533 169.008 44.5627 168.422 44.776C167.835 44.9893 167.158 45.096 166.39 45.096ZM174.405 45.096C173.691 45.096 173.013 45.0053 172.373 44.824C171.744 44.632 171.259 44.3973 170.917 44.12L171.605 42.904C171.936 43.16 172.363 43.368 172.885 43.528C173.419 43.688 173.973 43.768 174.549 43.768C175.285 43.768 175.84 43.656 176.213 43.432C176.587 43.208 176.773 42.904 176.773 42.52C176.773 42.2427 176.661 42.0347 176.437 41.896C176.213 41.7467 175.92 41.6347 175.557 41.56C175.205 41.4747 174.827 41.3947 174.421 41.32C174.016 41.2347 173.637 41.1173 173.285 40.968C172.933 40.8187 172.64 40.6053 172.405 40.328C172.181 40.04 172.069 39.6613 172.069 39.192C172.069 38.6267 172.229 38.1413 172.549 37.736C172.869 37.32 173.317 37 173.893 36.776C174.469 36.552 175.141 36.44 175.909 36.44C176.464 36.44 177.008 36.5093 177.541 36.648C178.085 36.776 178.528 36.9627 178.869 37.208L178.261 38.424C177.909 38.1787 177.515 38.008 177.077 37.912C176.64 37.8053 176.203 37.752 175.765 37.752C175.051 37.752 174.512 37.8747 174.149 38.12C173.787 38.3547 173.605 38.6533 173.605 39.016C173.605 39.2933 173.717 39.512 173.941 39.672C174.165 39.8213 174.453 39.9387 174.805 40.024C175.168 40.1093 175.547 40.1947 175.941 40.28C176.347 40.3547 176.725 40.4667 177.077 40.616C177.44 40.7547 177.733 40.9627 177.957 41.24C178.181 41.5067 178.293 41.8747 178.293 42.344C178.293 42.9307 178.128 43.432 177.797 43.848C177.477 44.2533 177.024 44.5627 176.437 44.776C175.851 44.9893 175.173 45.096 174.405 45.096Z" fill="black"/>
<path d="M6.216 29L0.648 12.2H3.888L8.856 27.392H7.248L12.408 12.2H15.288L20.304 27.392H18.744L23.832 12.2H26.808L21.24 29H17.928L13.344 15.296H14.208L9.552 29H6.216ZM26.4347 29L33.9947 12.2H37.0667L44.6507 29H41.3867L34.8827 13.856H36.1307L29.6507 29H26.4347ZM29.9147 25.112L30.7547 22.664H39.8267L40.6667 25.112H29.9147ZM46.7873 29V12.2H49.9073V26.36H58.6913V29H46.7873ZM61.1544 29V12.2H64.2744V26.36H73.0584V29H61.1544ZM78.4016 19.184H86.7536V21.752H78.4016V19.184ZM78.6416 26.384H88.1216V29H75.5216V12.2H87.7856V14.816H78.6416V26.384ZM95.0078 29V14.84H89.4398V12.2H103.696V14.84H98.1278V29H95.0078Z" fill="white"/>
<path d="M111.398 29L114.758 12.2H121.238C123.27 12.2 124.838 12.648 125.942 13.544C127.062 14.44 127.622 15.68 127.622 17.264C127.622 18.688 127.294 19.92 126.638 20.96C125.998 21.984 125.078 22.776 123.878 23.336C122.678 23.88 121.254 24.152 119.606 24.152H114.134L115.79 22.664L114.518 29H111.398ZM115.718 23.024L114.614 21.512H119.726C121.23 21.512 122.398 21.176 123.23 20.504C124.062 19.832 124.478 18.848 124.478 17.552C124.478 16.64 124.166 15.96 123.542 15.512C122.934 15.064 122.054 14.84 120.902 14.84H116.03L117.662 13.28L115.718 23.024ZM125.358 29L136.278 12.2H139.374L143.55 29H140.454L136.95 13.808H138.198L128.694 29H125.358ZM129.63 25.112L130.95 22.664H139.998L140.406 25.112H129.63ZM148.807 29L150.127 22.304L150.487 24.32L145.591 12.2H148.687L152.599 21.896L150.775 21.92L158.623 12.2H161.887L152.191 24.344L153.247 22.304L151.903 29H148.807Z" fill="#54C242"/>
<line x1="101.268" y1="49.8357" x2="112.268" y2="0.83572" stroke="white" stroke-width="1.5"/>
</svg>
