<svg width="310" height="32" viewBox="0 0 310 32" fill="none" xmlns="http://www.w3.org/2000/svg">
<g clip-path="url(#clip0_2463_17844)">
<rect width="1" height="12" rx="0.5" fill="#A3ACB9"/>
<path d="M3.87784 28.1449C3.20455 28.142 2.62926 27.9645 2.15199 27.6122C1.67472 27.2599 1.30966 26.7472 1.05682 26.0739C0.803977 25.4006 0.677557 24.5895 0.677557 23.6406C0.677557 22.6946 0.803977 21.8864 1.05682 21.2159C1.3125 20.5455 1.67898 20.0341 2.15625 19.6818C2.63636 19.3295 3.21023 19.1534 3.87784 19.1534C4.54545 19.1534 5.1179 19.331 5.59517 19.6861C6.07244 20.0384 6.4375 20.5497 6.69034 21.2202C6.94602 21.8878 7.07386 22.6946 7.07386 23.6406C7.07386 24.5923 6.94744 25.4048 6.6946 26.0781C6.44176 26.7486 6.0767 27.2614 5.59943 27.6165C5.12216 27.9688 4.5483 28.1449 3.87784 28.1449ZM3.87784 27.0071C4.46875 27.0071 4.9304 26.7188 5.26278 26.142C5.59801 25.5653 5.76562 24.7315 5.76562 23.6406C5.76562 22.9162 5.68892 22.304 5.53551 21.804C5.38494 21.3011 5.16761 20.9205 4.88352 20.6619C4.60227 20.4006 4.26705 20.2699 3.87784 20.2699C3.28977 20.2699 2.82813 20.5597 2.4929 21.1392C2.15767 21.7187 1.98864 22.5526 1.9858 23.6406C1.9858 24.3679 2.06108 24.983 2.21165 25.4858C2.36506 25.9858 2.58239 26.3651 2.86364 26.6236C3.14489 26.8793 3.48295 27.0071 3.87784 27.0071Z" fill="#697386"/>
<rect x="31.3008" width="1" height="6" rx="0.5" fill="#A3ACB9"/>
<rect x="55.5996" width="1" height="6" rx="0.5" fill="#A3ACB9"/>
<rect x="79.9004" width="1" height="6" rx="0.5" fill="#A3ACB9"/>
<rect x="104.199" width="1" height="6" rx="0.5" fill="#A3ACB9"/>
<rect x="128.5" width="1" height="12" rx="0.5" fill="#A3ACB9"/>
<rect x="152.801" width="1" height="6" rx="0.5" fill="#A3ACB9"/>
<rect x="177.1" width="1" height="6" rx="0.5" fill="#A3ACB9"/>
<rect x="201.4" width="1" height="6" rx="0.5" fill="#A3ACB9"/>
<rect x="225.699" width="1" height="6" rx="0.5" fill="#A3ACB9"/>
<rect x="309" width="1" height="12" rx="0.5" fill="#A3ACB9"/>
<path d="M251.078 26.2955V25.2301L254.849 19.2727H255.689V20.8409H255.156L252.459 25.1108V25.179H257.628V26.2955H251.078ZM255.216 28V25.9716L255.224 25.4858V19.2727H256.473V28H255.216ZM262.151 28.1449C261.478 28.142 260.903 27.9645 260.425 27.6122C259.948 27.2599 259.583 26.7472 259.33 26.0739C259.077 25.4006 258.951 24.5895 258.951 23.6406C258.951 22.6946 259.077 21.8864 259.33 21.2159C259.586 20.5455 259.952 20.0341 260.43 19.6818C260.91 19.3295 261.484 19.1534 262.151 19.1534C262.819 19.1534 263.391 19.331 263.869 19.6861C264.346 20.0384 264.711 20.5497 264.964 21.2202C265.219 21.8878 265.347 22.6946 265.347 23.6406C265.347 24.5923 265.221 25.4048 264.968 26.0781C264.715 26.7486 264.35 27.2614 263.873 27.6165C263.396 27.9688 262.822 28.1449 262.151 28.1449ZM262.151 27.0071C262.742 27.0071 263.204 26.7188 263.536 26.142C263.871 25.5653 264.039 24.7315 264.039 23.6406C264.039 22.9162 263.962 22.304 263.809 21.804C263.658 21.3011 263.441 20.9205 263.157 20.6619C262.876 20.4006 262.54 20.2699 262.151 20.2699C261.563 20.2699 261.102 20.5597 260.766 21.1392C260.431 21.7187 260.262 22.5526 260.259 23.6406C260.259 24.3679 260.335 24.983 260.485 25.4858C260.638 25.9858 260.856 26.3651 261.137 26.6236C261.418 26.8793 261.756 27.0071 262.151 27.0071ZM268.217 26.8068L268.153 27.2713C268.111 27.6122 268.038 27.9673 267.936 28.3366C267.837 28.7088 267.733 29.054 267.625 29.3722C267.52 29.6903 267.433 29.9432 267.365 30.1307H266.462C266.499 29.9545 266.55 29.7159 266.615 29.4148C266.68 29.1165 266.744 28.7827 266.807 28.4134C266.869 28.044 266.916 27.6676 266.947 27.2841L266.99 26.8068H268.217ZM270 28V27.0455L272.953 23.9858C273.268 23.6534 273.528 23.3622 273.733 23.1122C273.94 22.8594 274.095 22.6193 274.197 22.392C274.299 22.1648 274.35 21.9233 274.35 21.6676C274.35 21.3778 274.282 21.1278 274.146 20.9176C274.01 20.7045 273.824 20.5412 273.588 20.4276C273.352 20.3111 273.086 20.2528 272.791 20.2528C272.478 20.2528 272.206 20.3168 271.973 20.4446C271.74 20.5724 271.561 20.7528 271.436 20.9858C271.311 21.2187 271.248 21.4915 271.248 21.804H269.991C269.991 21.2727 270.113 20.8082 270.358 20.4105C270.602 20.0128 270.937 19.7045 271.363 19.4858C271.789 19.2642 272.274 19.1534 272.816 19.1534C273.365 19.1534 273.848 19.2628 274.265 19.4815C274.686 19.6974 275.014 19.9929 275.25 20.3679C275.485 20.7401 275.603 21.1605 275.603 21.6293C275.603 21.9531 275.542 22.2699 275.42 22.5795C275.301 22.8892 275.092 23.2344 274.794 23.6151C274.495 23.9929 274.081 24.4517 273.549 24.9915L271.815 26.8068V26.8707H275.744V28H270ZM280.397 28.1449C279.724 28.142 279.149 27.9645 278.672 27.6122C278.194 27.2599 277.829 26.7472 277.576 26.0739C277.324 25.4006 277.197 24.5895 277.197 23.6406C277.197 22.6946 277.324 21.8864 277.576 21.2159C277.832 20.5455 278.199 20.0341 278.676 19.6818C279.156 19.3295 279.73 19.1534 280.397 19.1534C281.065 19.1534 281.637 19.331 282.115 19.6861C282.592 20.0384 282.957 20.5497 283.21 21.2202C283.466 21.8878 283.593 22.6946 283.593 23.6406C283.593 24.5923 283.467 25.4048 283.214 26.0781C282.961 26.7486 282.596 27.2614 282.119 27.6165C281.642 27.9688 281.068 28.1449 280.397 28.1449ZM280.397 27.0071C280.988 27.0071 281.45 26.7188 281.782 26.142C282.118 25.5653 282.285 24.7315 282.285 23.6406C282.285 22.9162 282.208 22.304 282.055 21.804C281.904 21.3011 281.687 20.9205 281.403 20.6619C281.122 20.4006 280.787 20.2699 280.397 20.2699C279.809 20.2699 279.348 20.5597 279.012 21.1392C278.677 21.7187 278.508 22.5526 278.505 23.6406C278.505 24.3679 278.581 24.983 278.731 25.4858C278.885 25.9858 279.102 26.3651 279.383 26.6236C279.664 26.8793 280.002 27.0071 280.397 27.0071ZM288.152 28.1193C287.763 28.1136 287.379 28.0426 287.001 27.9062C286.626 27.7699 286.286 27.5426 285.979 27.2244C285.672 26.9062 285.426 26.4787 285.241 25.9418C285.06 25.4048 284.969 24.7344 284.969 23.9304C284.969 23.169 285.044 22.4929 285.195 21.902C285.348 21.3111 285.568 20.8125 285.855 20.4062C286.142 19.9972 286.489 19.6861 286.895 19.473C287.301 19.2599 287.757 19.1534 288.263 19.1534C288.783 19.1534 289.244 19.2557 289.648 19.4602C290.051 19.6648 290.378 19.9474 290.628 20.3082C290.881 20.669 291.041 21.0795 291.109 21.5398H289.81C289.722 21.1761 289.547 20.8793 289.286 20.6491C289.024 20.419 288.683 20.304 288.263 20.304C287.624 20.304 287.125 20.5824 286.767 21.1392C286.412 21.696 286.233 22.4702 286.23 23.4616H286.294C286.445 23.2145 286.629 23.0043 286.848 22.831C287.07 22.6548 287.317 22.5199 287.589 22.4261C287.865 22.3295 288.155 22.2812 288.459 22.2812C288.964 22.2812 289.422 22.4048 289.831 22.652C290.243 22.8963 290.571 23.2344 290.815 23.6662C291.06 24.098 291.182 24.5923 291.182 25.1491C291.182 25.706 291.055 26.2102 290.803 26.6619C290.553 27.1136 290.2 27.4716 289.746 27.7358C289.291 27.9972 288.76 28.125 288.152 28.1193ZM288.148 27.0114C288.483 27.0114 288.783 26.929 289.047 26.7642C289.311 26.5994 289.52 26.3778 289.673 26.0994C289.827 25.821 289.903 25.5099 289.903 25.1662C289.903 24.831 289.828 24.5256 289.678 24.25C289.53 23.9744 289.325 23.7557 289.064 23.5938C288.805 23.4318 288.51 23.3509 288.178 23.3509C287.925 23.3509 287.69 23.3991 287.474 23.4957C287.261 23.5923 287.074 23.7259 286.912 23.8963C286.75 24.0668 286.622 24.2628 286.528 24.4844C286.438 24.7031 286.392 24.9347 286.392 25.179C286.392 25.5057 286.467 25.8082 286.618 26.0866C286.771 26.3651 286.98 26.5895 287.244 26.7599C287.511 26.9276 287.813 27.0114 288.148 27.0114ZM293.192 28.081C292.959 28.081 292.759 27.9986 292.591 27.8338C292.424 27.6662 292.34 27.4645 292.34 27.2287C292.34 26.9957 292.424 26.7969 292.591 26.6321C292.759 26.4645 292.959 26.3807 293.192 26.3807C293.425 26.3807 293.625 26.4645 293.793 26.6321C293.961 26.7969 294.044 26.9957 294.044 27.2287C294.044 27.3849 294.005 27.5284 293.925 27.6591C293.848 27.7869 293.746 27.8892 293.618 27.9659C293.49 28.0426 293.348 28.081 293.192 28.081ZM295.734 28V27.0455L298.687 23.9858C299.002 23.6534 299.262 23.3622 299.467 23.1122C299.674 22.8594 299.829 22.6193 299.931 22.392C300.034 22.1648 300.085 21.9233 300.085 21.6676C300.085 21.3778 300.017 21.1278 299.88 20.9176C299.744 20.7045 299.558 20.5412 299.322 20.4276C299.086 20.3111 298.821 20.2528 298.525 20.2528C298.213 20.2528 297.94 20.3168 297.707 20.4446C297.474 20.5724 297.295 20.7528 297.17 20.9858C297.045 21.2187 296.983 21.4915 296.983 21.804H295.725C295.725 21.2727 295.848 20.8082 296.092 20.4105C296.336 20.0128 296.672 19.7045 297.098 19.4858C297.524 19.2642 298.008 19.1534 298.551 19.1534C299.099 19.1534 299.582 19.2628 300 19.4815C300.42 19.6974 300.748 19.9929 300.984 20.3679C301.22 20.7401 301.338 21.1605 301.338 21.6293C301.338 21.9531 301.277 22.2699 301.154 22.5795C301.035 22.8892 300.826 23.2344 300.528 23.6151C300.23 23.9929 299.815 24.4517 299.284 24.9915L297.549 26.8068V26.8707H301.478V28H295.734ZM306.132 28.1449C305.458 28.142 304.883 27.9645 304.406 27.6122C303.929 27.2599 303.564 26.7472 303.311 26.0739C303.058 25.4006 302.931 24.5895 302.931 23.6406C302.931 22.6946 303.058 21.8864 303.311 21.2159C303.566 20.5455 303.933 20.0341 304.41 19.6818C304.89 19.3295 305.464 19.1534 306.132 19.1534C306.799 19.1534 307.372 19.331 307.849 19.6861C308.326 20.0384 308.691 20.5497 308.944 21.2202C309.2 21.8878 309.328 22.6946 309.328 23.6406C309.328 24.5923 309.201 25.4048 308.949 26.0781C308.696 26.7486 308.331 27.2614 307.853 27.6165C307.376 27.9688 306.802 28.1449 306.132 28.1449ZM306.132 27.0071C306.723 27.0071 307.184 26.7188 307.517 26.142C307.852 25.5653 308.02 24.7315 308.02 23.6406C308.02 22.9162 307.943 22.304 307.789 21.804C307.639 21.3011 307.422 20.9205 307.137 20.6619C306.856 20.4006 306.521 20.2699 306.132 20.2699C305.544 20.2699 305.082 20.5597 304.747 21.1392C304.412 21.7187 304.243 22.5526 304.24 23.6406C304.24 24.3679 304.315 24.983 304.466 25.4858C304.619 25.9858 304.836 26.3651 305.118 26.6236C305.399 26.8793 305.737 27.0071 306.132 27.0071Z" fill="#697386"/>
</g>
<defs>
<clipPath id="clip0_2463_17844">
<rect width="310" height="32" fill="white"/>
</clipPath>
</defs>
</svg>
